Amaranth-BoldItalic.ufo
<glyph name="exclam" format="1">
  <advance width="326"/>
  <unicode hex="0021"/>
  <outline>
    <contour>
      <point x="71" y="221" type="line"/>
      <point x="210" y="221" type="line"/>
      <point x="322" y="669" type="line"/>
      <point x="155" y="669" type="line"/>
    </contour>
    <contour>
      <point x="121" y="170" type="curve" smooth="yes"/>
      <point x="59" y="170"/>
      <point x="21" y="125"/>
      <point x="21" y="72" type="curve" smooth="yes"/>
      <point x="21" y="22"/>
      <point x="49" y="-13"/>
      <point x="110" y="-13" type="curve" smooth="yes"/>
      <point x="172" y="-13"/>
      <point x="211" y="32"/>
      <point x="211" y="85" type="curve" smooth="yes"/>
      <point x="211" y="138"/>
      <point x="182" y="170"/>
    </contour>
  </outline>
</glyph>
<glyph name="numbersign" format="1">
  <advance width="639"/>
  <unicode hex="0023"/>
  <outline>
    <contour>
      <point x="77" y="352" type="line"/>
      <point x="178" y="352" type="line"/>
      <point x="143" y="241" type="line"/>
      <point x="49" y="241" type="line"/>
      <point x="12" y="126" type="line"/>
      <point x="108" y="126" type="line"/>
      <point x="68" y="0" type="line"/>
      <point x="197" y="0" type="line"/>
      <point x="237" y="126" type="line"/>
      <point x="293" y="126" type="line"/>
      <point x="254" y="0" type="line"/>
      <point x="383" y="0" type="line"/>
      <point x="422" y="127" type="line"/>
      <point x="516" y="127" type="line"/>
      <point x="552" y="241" type="line"/>
      <point x="458" y="241" type="line"/>
      <point x="493" y="352" type="line"/>
      <point x="581" y="352" type="line"/>
      <point x="616" y="465" type="line"/>
      <point x="528" y="465" type="line"/>
      <point x="568" y="590" type="line"/>
      <point x="439" y="590" type="line"/>
      <point x="399" y="465" type="line"/>
      <point x="343" y="465" type="line"/>
      <point x="382" y="590" type="line"/>
      <point x="253" y="590" type="line"/>
      <point x="214" y="465" type="line"/>
      <point x="114" y="465" type="line"/>
    </contour>
    <contour>
      <point x="272" y="241" type="line"/>
      <point x="307" y="352" type="line"/>
      <point x="364" y="352" type="line"/>
      <point x="329" y="241" type="line"/>
    </contour>
  </outline>
</glyph>
<glyph name="dollar" format="1">
  <advance width="534"/>
  <unicode hex="0024"/>
  <outline>
    <contour>
      <point x="268" y="694" type="line"/>
      <point x="248" y="606" type="line"/>
      <point x="154" y="588"/>
      <point x="89" y="529"/>
      <point x="89" y="440" type="curve" smooth="yes"/>
      <point x="89" y="369"/>
      <point x="123" y="332"/>
      <point x="182" y="291" type="curve" smooth="yes"/>
      <point x="236" y="254" type="line" smooth="yes"/>
      <point x="268" y="233"/>
      <point x="277" y="210"/>
      <point x="277" y="188" type="curve" smooth="yes"/>
      <point x="277" y="158"/>
      <point x="247" y="134"/>
      <point x="204" y="134" type="curve" smooth="yes"/>
      <point x="174" y="134"/>
      <point x="136" y="154"/>
      <point x="118" y="200" type="curve"/>
      <point x="2" y="142" type="line"/>
      <point x="21" y="87"/>
      <point x="66" y="36"/>
      <point x="136" y="17" type="curve"/>
      <point x="122" y="-83" type="line"/>
      <point x="239" y="-83" type="line"/>
      <point x="257" y="14" type="line"/>
      <point x="358" y="32"/>
      <point x="439" y="97"/>
      <point x="439" y="198" type="curve" smooth="yes"/>
      <point x="439" y="262"/>
      <point x="417" y="302"/>
      <point x="362" y="342" type="curve" smooth="yes"/>
      <point x="297" y="389" type="line" smooth="yes"/>
      <point x="273" y="405"/>
      <point x="251" y="423"/>
      <point x="251" y="448" type="curve" smooth="yes"/>
      <point x="251" y="473"/>
      <point x="275" y="489"/>
      <point x="308" y="489" type="curve" smooth="yes"/>
      <point x="347" y="489"/>
      <point x="355" y="456"/>
      <point x="367" y="436" type="curve"/>
      <point x="481" y="495" type="line"/>
      <point x="467" y="546"/>
      <point x="438" y="591"/>
      <point x="369" y="607" type="curve"/>
      <point x="386" y="694" type="line"/>
    </contour>
  </outline>
</glyph>
<glyph name="parenright" format="1">
  <advance width="389"/>
  <unicode hex="0029"/>
  <outline>
    <contour>
      <point x="342" y="394" type="curve" smooth="yes"/>
      <point x="342" y="567"/>
      <point x="251" y="675"/>
      <point x="191" y="726" type="curve"/>
      <point x="99" y="642" type="line"/>
      <point x="143" y="589"/>
      <point x="190" y="527"/>
      <point x="190" y="384" type="curve" smooth="yes"/>
      <point x="190" y="194"/>
      <point x="96" y="14"/>
      <point x="-48" y="-90" type="curve"/>
      <point x="20" y="-186" type="line"/>
      <point x="218" y="-55"/>
      <point x="342" y="163"/>
    </contour>
  </outline>
</glyph>
<glyph name="asterisk" format="1">
  <advance width="476"/>
  <unicode hex="002A"/>
  <outline>
    <contour>
      <point x="72" y="502" type="line"/>
      <point x="169" y="465" type="line"/>
      <point x="79" y="396" type="line"/>
      <point x="178" y="309" type="line"/>
      <point x="260" y="399" type="line"/>
      <point x="313" y="308" type="line"/>
      <point x="427" y="380" type="line"/>
      <point x="356" y="464" type="line"/>
      <point x="474" y="497" type="line"/>
      <point x="438" y="624" type="line"/>
      <point x="332" y="575" type="line"/>
      <point x="362" y="667" type="line"/>
      <point x="229" y="680" type="line"/>
      <point x="214" y="571" type="line"/>
      <point x="122" y="624" type="line"/>
    </contour>
  </outline>
</glyph>
<glyph name="plus" format="1">
  <advance width="527"/>
  <unicode hex="002B"/>
  <outline>
    <contour>
      <point x="230" y="499" type="line"/>
      <point x="204" y="360" type="line"/>
      <point x="70" y="360" type="line"/>
      <point x="47" y="238" type="line"/>
      <point x="182" y="238" type="line"/>
      <point x="155" y="92" type="line"/>
      <point x="286" y="92" type="line"/>
      <point x="312" y="238" type="line"/>
      <point x="448" y="238" type="line"/>
      <point x="470" y="360" type="line"/>
      <point x="334" y="360" type="line"/>
      <point x="360" y="499" type="line"/>
    </contour>
  </outline>
</glyph>
<glyph name="six" format="1">
  <advance width="505"/>
  <unicode hex="0036"/>
  <outline>
    <contour>
      <point x="472" y="607" type="line"/>
      <point x="437" y="627"/>
      <point x="392" y="637"/>
      <point x="344" y="637" type="curve" smooth="yes"/>
      <point x="112" y="637"/>
      <point x="17" y="435"/>
      <point x="17" y="194" type="curve" smooth="yes"/>
      <point x="17" y="42"/>
      <point x="95" y="-16"/>
      <point x="217" y="-16" type="curve" smooth="yes"/>
      <point x="364" y="-16"/>
      <point x="466" y="98"/>
      <point x="466" y="277" type="curve" smooth="yes"/>
      <point x="466" y="352"/>
      <point x="426" y="421"/>
      <point x="326" y="421" type="curve" smooth="yes"/>
      <point x="277" y="421"/>
      <point x="236" y="400"/>
      <point x="205" y="376" type="curve"/>
      <point x="227" y="452"/>
      <point x="267" y="512"/>
      <point x="330" y="512" type="curve" smooth="yes"/>
      <point x="366" y="512"/>
      <point x="392" y="507"/>
      <point x="425" y="496" type="curve"/>
    </contour>
    <contour>
      <point x="258" y="303" type="curve" smooth="yes"/>
      <point x="291" y="303"/>
      <point x="305" y="282"/>
      <point x="305" y="240" type="curve" smooth="yes"/>
      <point x="305" y="173"/>
      <point x="277" y="107"/>
      <point x="227" y="107" type="curve" smooth="yes"/>
      <point x="196" y="107"/>
      <point x="180" y="138"/>
      <point x="180" y="197" type="curve" smooth="yes"/>
      <point x="180" y="221"/>
      <point x="181" y="248"/>
      <point x="184" y="275" type="curve"/>
      <point x="202" y="288"/>
      <point x="229" y="303"/>
    </contour>
  </outline>
</glyph>
<glyph name="colon" format="1">
  <advance width="338"/>
  <unicode hex="003A"/>
  <outline>
    <contour>
      <point x="136" y="170" type="curve" smooth="yes"/>
      <point x="73" y="170"/>
      <point x="35" y="125"/>
      <point x="35" y="72" type="curve" smooth="yes"/>
      <point x="35" y="22"/>
      <point x="63" y="-13"/>
      <point x="123" y="-13" type="curve" smooth="yes"/>
      <point x="186" y="-13"/>
      <point x="225" y="32"/>
      <point x="225" y="85" type="curve" smooth="yes"/>
      <point x="225" y="138"/>
      <point x="196" y="170"/>
    </contour>
    <contour>
      <point x="203" y="502" type="curve" smooth="yes"/>
      <point x="140" y="502"/>
      <point x="102" y="457"/>
      <point x="102" y="403" type="curve" smooth="yes"/>
      <point x="102" y="354"/>
      <point x="130" y="319"/>
      <point x="191" y="319" type="curve" smooth="yes"/>
      <point x="253" y="319"/>
      <point x="293" y="364"/>
      <point x="293" y="416" type="curve" smooth="yes"/>
      <point x="293" y="469"/>
      <point x="264" y="502"/>
    </contour>
  </outline>
</glyph>
<glyph name="less" format="1">
  <advance width="455"/>
  <unicode hex="003C"/>
  <outline>
    <contour>
      <point x="404" y="195" type="line"/>
      <point x="248" y="274" type="line" smooth="yes"/>
      <point x="236" y="280"/>
      <point x="211" y="291"/>
      <point x="198" y="295" type="curve"/>
      <point x="213" y="299"/>
      <point x="237" y="309"/>
      <point x="250" y="314" type="curve" smooth="yes"/>
      <point x="438" y="390" type="line"/>
      <point x="392" y="510" type="line"/>
      <point x="17" y="339" type="line"/>
      <point x="17" y="247" type="line"/>
      <point x="332" y="73" type="line"/>
    </contour>
  </outline>
</glyph>
<glyph name="question" format="1">
  <advance width="440"/>
  <unicode hex="003F"/>
  <outline>
    <contour>
      <point x="288" y="676" type="curve" smooth="yes"/>
      <point x="223" y="676"/>
      <point x="154" y="648"/>
      <point x="89" y="618" type="curve"/>
      <point x="136" y="508" type="line"/>
      <point x="181" y="533"/>
      <point x="214" y="555"/>
      <point x="252" y="555" type="curve" smooth="yes"/>
      <point x="278" y="555"/>
      <point x="295" y="540"/>
      <point x="295" y="514" type="curve" smooth="yes"/>
      <point x="295" y="431"/>
      <point x="142" y="364"/>
      <point x="119" y="222" type="curve"/>
      <point x="227" y="192" type="line"/>
      <point x="252" y="247"/>
      <point x="283" y="283"/>
      <point x="323" y="320" type="curve" smooth="yes"/>
      <point x="392" y="386"/>
      <point x="463" y="431"/>
      <point x="463" y="534" type="curve" smooth="yes"/>
      <point x="463" y="618"/>
      <point x="402" y="676"/>
    </contour>
    <contour>
      <point x="146" y="170" type="curve" smooth="yes"/>
      <point x="84" y="170"/>
      <point x="46" y="125"/>
      <point x="46" y="72" type="curve" smooth="yes"/>
      <point x="46" y="22"/>
      <point x="74" y="-13"/>
      <point x="135" y="-13" type="curve" smooth="yes"/>
      <point x="197" y="-13"/>
      <point x="236" y="32"/>
      <point x="236" y="85" type="curve" smooth="yes"/>
      <point x="236" y="138"/>
      <point x="207" y="170"/>
    </contour>
  </outline>
</glyph>
<glyph name="F" format="1">
  <advance width="481"/>
  <unicode hex="0046"/>
  <outline>
    <contour>
      <point x="7" y="0" type="line"/>
      <point x="169" y="0" type="line"/>
      <point x="224" y="281" type="line"/>
      <point x="427" y="281" type="line"/>
      <point x="453" y="402" type="line"/>
      <point x="247" y="402" type="line"/>
      <point x="276" y="548" type="line"/>
      <point x="526" y="548" type="line"/>
      <point x="553" y="669" type="line"/>
      <point x="137" y="669" type="line"/>
    </contour>
  </outline>
</glyph>
<glyph name="M" format="1">
  <advance width="841"/>
  <unicode hex="004D"/>
  <outline>
    <contour>
      <point x="562" y="0" type="line"/>
      <point x="726" y="0" type="line"/>
      <point x="801" y="669" type="line"/>
      <point x="662" y="669" type="line"/>
      <point x="428" y="256" type="line" smooth="yes"/>
      <point x="417" y="237"/>
      <point x="400" y="200"/>
      <point x="388" y="176" type="curve"/>
      <point x="385" y="200"/>
      <point x="379" y="238"/>
      <point x="376" y="256" type="curve" smooth="yes"/>
      <point x="302" y="669" type="line"/>
      <point x="162" y="669" type="line"/>
      <point x="2" y="21" type="line"/>
      <point x="163" y="-3" type="line"/>
      <point x="211" y="258" type="line" smooth="yes"/>
      <point x="215" y="277"/>
      <point x="222" y="332"/>
      <point x="228" y="375" type="curve"/>
      <point x="234" y="333"/>
      <point x="244" y="276"/>
      <point x="248" y="255" type="curve" smooth="yes"/>
      <point x="296" y="0" type="line"/>
      <point x="423" y="0" type="line"/>
      <point x="570" y="258" type="line" smooth="yes"/>
      <point x="582" y="279"/>
      <point x="610" y="335"/>
      <point x="633" y="379" type="curve"/>
      <point x="623" y="335"/>
      <point x="613" y="280"/>
      <point x="609" y="255" type="curve" smooth="yes"/>
    </contour>
  </outline>
</glyph>
<glyph name="R" format="1">
  <advance width="598"/>
  <unicode hex="0052"/>
  <outline>
    <contour>
      <point x="7" y="0" type="line"/>
      <point x="169" y="0" type="line"/>
      <point x="223" y="277" type="line"/>
      <point x="231" y="277"/>
      <point x="241" y="276"/>
      <point x="249" y="276" type="curve"/>
      <point x="297" y="141"/>
      <point x="342" y="47"/>
      <point x="463" y="-103" type="curve"/>
      <point x="596" y="-33" type="line"/>
      <point x="516" y="62"/>
      <point x="421" y="199"/>
      <point x="389" y="296" type="curve"/>
      <point x="483" y="332"/>
      <point x="551" y="403"/>
      <point x="551" y="519" type="curve" smooth="yes"/>
      <point x="551" y="637"/>
      <point x="462" y="675"/>
      <point x="345" y="675" type="curve" smooth="yes"/>
      <point x="308" y="675"/>
      <point x="274" y="671"/>
      <point x="248" y="666" type="curve"/>
      <point x="137" y="673" type="line"/>
    </contour>
    <contour>
      <point x="311" y="567" type="curve" smooth="yes"/>
      <point x="354" y="567"/>
      <point x="381" y="547"/>
      <point x="381" y="499" type="curve" smooth="yes"/>
      <point x="381" y="432"/>
      <point x="333" y="392"/>
      <point x="259" y="392" type="curve" smooth="yes"/>
      <point x="245" y="392" type="line"/>
      <point x="278" y="565" type="line"/>
      <point x="289" y="567"/>
      <point x="299" y="567"/>
    </contour>
  </outline>
</glyph>
<glyph name="T" format="1">
  <advance width="468"/>
  <unicode hex="0054"/>
  <outline>
    <contour>
      <point x="47" y="548" type="line"/>
      <point x="198" y="548" type="line"/>
      <point x="93" y="0" type="line"/>
      <point x="256" y="0" type="line"/>
      <point x="362" y="548" type="line"/>
      <point x="519" y="548" type="line"/>
      <point x="545" y="669" type="line"/>
      <point x="47" y="669" type="line"/>
    </contour>
  </outline>
</glyph>
<glyph name="bracketleft" format="1">
  <advance width="414"/>
  <unicode hex="005B"/>
  <outline>
    <contour>
      <point x="30" y="-186" type="line"/>
      <point x="292" y="-186" type="line"/>
      <point x="314" y="-64" type="line"/>
      <point x="203" y="-64" type="line"/>
      <point x="332" y="598" type="line"/>
      <point x="440" y="598" type="line"/>
      <point x="464" y="720" type="line"/>
      <point x="207" y="720" type="line"/>
    </contour>
  </outline>
</glyph>
<glyph name="asciicircum" format="1">
  <advance width="521"/>
  <unicode hex="005E"/>
  <outline>
    <contour>
      <point x="473" y="307" type="line"/>
      <point x="367" y="670" type="line"/>
      <point x="273" y="670" type="line"/>
      <point x="37" y="328" type="line"/>
      <point x="153" y="269" type="line"/>
      <point x="259" y="439" type="line"/>
      <point x="271" y="457"/>
      <point x="281" y="479"/>
      <point x="286" y="494" type="curve"/>
      <point x="288" y="478"/>
      <point x="292" y="453"/>
      <point x="295" y="441" type="curve" smooth="yes"/>
      <point x="332" y="290" type="line"/>
    </contour>
  </outline>
</glyph>
<glyph name="grave" format="1">
  <advance width="499"/>
  <unicode hex="0060"/>
  <outline>
    <contour>
      <point x="306" y="498" type="move" name="_top"/>
    </contour>
    <contour>
      <point x="380" y="592" type="line"/>
      <point x="380" y="592"/>
      <point x="294" y="675"/>
      <point x="243" y="789" type="curve"/>
      <point x="162" y="756"/>
      <point x="130" y="704"/>
      <point x="130" y="704" type="curve"/>
      <point x="185" y="594"/>
      <point x="307" y="526"/>
      <point x="307" y="526" type="curve"/>
    </contour>
  </outline>
</glyph>
<glyph name="f" format="1">
  <advance width="350"/>
  <unicode hex="0066"/>
  <outline>
    <contour>
      <point x="445" y="615" type="line"/>
      <point x="426" y="684"/>
      <point x="386" y="722"/>
      <point x="298" y="722" type="curve" smooth="yes"/>
      <point x="192" y="722"/>
      <point x="106" y="677"/>
      <point x="106" y="574" type="curve" smooth="yes"/>
      <point x="106" y="554"/>
      <point x="113" y="514"/>
      <point x="128" y="490" type="curve"/>
      <point x="26" y="490" type="line"/>
      <point x="26" y="374" type="line"/>
      <point x="101" y="374" type="line"/>
      <point x="36" y="37" type="line" smooth="yes"/>
      <point x="22" y="-34"/>
      <point x="-23" y="-74"/>
      <point x="-108" y="-114" type="curve"/>
      <point x="-51" y="-222" type="line"/>
      <point x="82" y="-160"/>
      <point x="160" y="-100"/>
      <point x="188" y="39" type="curve" smooth="yes"/>
      <point x="254" y="374" type="line"/>
      <point x="357" y="374" type="line"/>
      <point x="377" y="490" type="line"/>
      <point x="262" y="490" type="line"/>
      <point x="256" y="516"/>
      <point x="253" y="541"/>
      <point x="253" y="560" type="curve" smooth="yes"/>
      <point x="253" y="593"/>
      <point x="269" y="606"/>
      <point x="290" y="606" type="curve" smooth="yes"/>
      <point x="309" y="606"/>
      <point x="315" y="583"/>
      <point x="322" y="560" type="curve"/>
    </contour>
  </outline>
</glyph>
<glyph name="h" format="1">
  <advance width="542"/>
  <unicode hex="0068"/>
  <outline>
    <contour>
      <point x="311" y="725" type="line"/>
      <point x="156" y="705" type="line"/>
      <point x="17" y="0" type="line"/>
      <point x="172" y="0" type="line"/>
      <point x="204" y="162" type="line" smooth="yes"/>
      <point x="222" y="254"/>
      <point x="279" y="374"/>
      <point x="330" y="374" type="curve" smooth="yes"/>
      <point x="347" y="374"/>
      <point x="354" y="361"/>
      <point x="354" y="343" type="curve" smooth="yes"/>
      <point x="354" y="261"/>
      <point x="300" y="171"/>
      <point x="300" y="76" type="curve" smooth="yes"/>
      <point x="300" y="59"/>
      <point x="300" y="40"/>
      <point x="307" y="0" type="curve"/>
      <point x="463" y="0" type="line"/>
      <point x="453" y="44"/>
      <point x="450" y="84"/>
      <point x="450" y="108" type="curve" smooth="yes"/>
      <point x="450" y="182"/>
      <point x="510" y="266"/>
      <point x="510" y="378" type="curve" smooth="yes"/>
      <point x="510" y="457"/>
      <point x="472" y="502"/>
      <point x="385" y="502" type="curve" smooth="yes"/>
      <point x="306" y="502"/>
      <point x="255" y="467"/>
      <point x="198" y="356" type="curve"/>
      <point x="232" y="438"/>
      <point x="271" y="510"/>
      <point x="283" y="578" type="curve" smooth="yes"/>
    </contour>
  </outline>
</glyph>
<glyph name="y" format="1">
  <advance width="550"/>
  <unicode hex="0079"/>
  <outline>
    <contour>
      <point x="316" y="498" type="move" name="top"/>
    </contour>
    <contour>
      <point x="522" y="490" type="curve"/>
      <point x="368" y="490" type="line"/>
      <point x="337" y="331" type="line" smooth="yes"/>
      <point x="319" y="239"/>
      <point x="262" y="119"/>
      <point x="211" y="119" type="curve" smooth="yes"/>
      <point x="194" y="119"/>
      <point x="187" y="132"/>
      <point x="187" y="149" type="curve" smooth="yes"/>
      <point x="187" y="225"/>
      <point x="240" y="304"/>
      <point x="240" y="385" type="curve" smooth="yes"/>
      <point x="240" y="415"/>
      <point x="233" y="458"/>
      <point x="212" y="501" type="curve"/>
      <point x="78" y="468" type="line"/>
      <point x="85" y="445"/>
      <point x="88" y="413"/>
      <point x="88" y="391" type="curve" smooth="yes"/>
      <point x="88" y="313"/>
      <point x="31" y="220"/>
      <point x="31" y="115" type="curve" smooth="yes"/>
      <point x="31" y="35"/>
      <point x="69" y="-9"/>
      <point x="156" y="-9" type="curve" smooth="yes"/>
      <point x="235" y="-9"/>
      <point x="292" y="30"/>
      <point x="333" y="118" type="curve" smooth="yes"/>
      <point x="346" y="147" type="line"/>
      <point x="343" y="119"/>
      <point x="338" y="85"/>
      <point x="338" y="62" type="curve" smooth="yes"/>
      <point x="338" y="25"/>
      <point x="339" y="13"/>
      <point x="339" y="-12" type="curve" smooth="yes"/>
      <point x="339" y="-52"/>
      <point x="312" y="-89"/>
      <point x="257" y="-89" type="curve" smooth="yes"/>
      <point x="203" y="-89"/>
      <point x="134" y="-63"/>
      <point x="86" y="-43" type="curve"/>
      <point x="30" y="-162" type="line"/>
      <point x="76" y="-184"/>
      <point x="158" y="-222"/>
      <point x="266" y="-222" type="curve" smooth="yes"/>
      <point x="395" y="-222"/>
      <point x="478" y="-158"/>
      <point x="478" y="-27" type="curve" smooth="yes"/>
      <point x="478" y="45"/>
      <point x="462" y="86"/>
      <point x="462" y="156" type="curve" smooth="yes"/>
      <point x="462" y="190"/>
      <point x="483" y="292"/>
    </contour>
  </outline>
</glyph>
<glyph name="braceleft" format="1">
  <advance width="399"/>
  <unicode hex="007B"/>
  <outline>
    <contour>
      <point x="40" y="-2" type="line" smooth="yes"/>
      <point x="29" y="-44"/>
      <point x="25" y="-64"/>
      <point x="25" y="-88" type="curve" smooth="yes"/>
      <point x="25" y="-159"/>
      <point x="83" y="-192"/>
      <point x="153" y="-192" type="curve" smooth="yes"/>
      <point x="178" y="-192"/>
      <point x="216" y="-187"/>
      <point x="240" y="-183" type="curve"/>
      <point x="268" y="-40" type="line"/>
      <point x="249" y="-47"/>
      <point x="226" y="-53"/>
      <point x="209" y="-53" type="curve" smooth="yes"/>
      <point x="196" y="-53"/>
      <point x="187" y="-44"/>
      <point x="187" y="-32" type="curve" smooth="yes"/>
      <point x="187" y="-25"/>
      <point x="192" y="-11"/>
      <point x="195" y="0" type="curve" smooth="yes"/>
      <point x="222" y="110" type="line" smooth="yes"/>
      <point x="227" y="130"/>
      <point x="233" y="158"/>
      <point x="233" y="178" type="curve" smooth="yes"/>
      <point x="233" y="212"/>
      <point x="214" y="239"/>
      <point x="181" y="260" type="curve"/>
      <point x="254" y="301"/>
      <point x="276" y="352"/>
      <point x="282" y="406" type="curve" smooth="yes"/>
      <point x="298" y="547" type="line" smooth="yes"/>
      <point x="300" y="564"/>
      <point x="313" y="593"/>
      <point x="344" y="593" type="curve" smooth="yes"/>
      <point x="355" y="593"/>
      <point x="371" y="590"/>
      <point x="387" y="584" type="curve"/>
      <point x="412" y="711" type="line"/>
      <point x="381" y="718"/>
      <point x="360" y="724"/>
      <point x="331" y="724" type="curve" smooth="yes"/>
      <point x="242" y="724"/>
      <point x="158" y="689"/>
      <point x="146" y="582" type="curve" smooth="yes"/>
      <point x="124" y="406" type="line" smooth="yes"/>
      <point x="117" y="346"/>
      <point x="74" y="325"/>
      <point x="30" y="312" type="curve"/>
      <point x="30" y="209" type="line"/>
      <point x="73" y="202"/>
      <point x="76" y="177"/>
      <point x="76" y="157" type="curve" smooth="yes"/>
      <point x="76" y="144"/>
      <point x="73" y="126"/>
      <point x="70" y="116" type="curve" smooth="yes"/>
    </contour>
  </outline>
</glyph>
<glyph name="exclamdown" format="1">
  <advance width="326"/>
  <unicode hex="00A1"/>
  <outline>
    <contour>
      <point x="229" y="266" type="line"/>
      <point x="90" y="266" type="line"/>
      <point x="-23" y="-182" type="line"/>
      <point x="144" y="-182" type="line"/>
    </contour>
    <contour>
      <point x="179" y="317" type="curve" smooth="yes"/>
      <point x="241" y="317"/>
      <point x="279" y="362"/>
      <point x="279" y="415" type="curve" smooth="yes"/>
      <point x="279" y="464"/>
      <point x="251" y="499"/>
      <point x="190" y="499" type="curve" smooth="yes"/>
      <point x="128" y="499"/>
      <point x="88" y="454"/>
      <point x="88" y="402" type="curve" smooth="yes"/>
      <point x="88" y="349"/>
      <point x="118" y="317"/>
    </contour>
  </outline>
</glyph>
<glyph name="yen" format="1">
  <advance width="562"/>
  <unicode hex="00A5"/>
  <outline>
    <contour>
      <point x="132" y="0" type="line"/>
      <point x="289" y="0" type="line"/>
      <point x="303" y="79" type="line"/>
      <point x="414" y="79" type="line"/>
      <point x="438" y="201" type="line"/>
      <point x="327" y="201" type="line"/>
      <point x="332" y="229" type="line"/>
      <point x="443" y="229" type="line"/>
      <point x="467" y="351" type="line"/>
      <point x="399" y="351" type="line"/>
      <point x="570" y="579" type="line"/>
      <point x="445" y="638" type="line"/>
      <point x="280" y="387" type="line"/>
      <point x="215" y="629" type="line"/>
      <point x="54" y="629" type="line"/>
      <point x="154" y="351" type="line"/>
      <point x="90" y="351" type="line"/>
      <point x="66" y="229" type="line"/>
      <point x="175" y="229" type="line"/>
      <point x="170" y="201" type="line"/>
      <point x="61" y="201" type="line"/>
      <point x="37" y="79" type="line"/>
      <point x="146" y="79" type="line"/>
    </contour>
  </outline>
</glyph>
<glyph name="uni00B5" format="1">
  <advance width="570"/>
  <unicode hex="00B5"/>
  <outline>
    <contour>
      <point x="-23" y="-222" type="line"/>
      <point x="133" y="-202" type="line"/>
      <point x="154" y="-89" type="line" smooth="yes"/>
      <point x="162" y="-50"/>
      <point x="160" y="-4"/>
      <point x="156" y="25" type="curve"/>
      <point x="173" y="1"/>
      <point x="196" y="-9"/>
      <point x="220" y="-9" type="curve" smooth="yes"/>
      <point x="279" y="-9"/>
      <point x="315" y="28"/>
      <point x="352" y="113" type="curve" smooth="yes"/>
      <point x="366" y="146" type="line"/>
      <point x="360" y="103"/>
      <point x="359" y="88"/>
      <point x="359" y="75" type="curve" smooth="yes"/>
      <point x="359" y="43"/>
      <point x="369" y="11"/>
      <point x="389" y="-12" type="curve"/>
      <point x="515" y="38" type="line"/>
      <point x="505" y="54"/>
      <point x="481" y="92"/>
      <point x="481" y="152" type="curve" smooth="yes"/>
      <point x="481" y="176"/>
      <point x="484" y="204"/>
      <point x="491" y="237" type="curve" smooth="yes"/>
      <point x="542" y="493" type="line"/>
      <point x="388" y="493" type="line"/>
      <point x="356" y="331" type="line" smooth="yes"/>
      <point x="338" y="239"/>
      <point x="284" y="121"/>
      <point x="231" y="121" type="curve" smooth="yes"/>
      <point x="219" y="121"/>
      <point x="205" y="132"/>
      <point x="205" y="151" type="curve" smooth="yes"/>
      <point x="205" y="158"/>
      <point x="205" y="164"/>
      <point x="206" y="171" type="curve" smooth="yes"/>
      <point x="267" y="490" type="line"/>
      <point x="114" y="490" type="line"/>
    </contour>
  </outline>
</glyph>
<glyph name="threequarters" format="1">
  <advance width="823"/>
  <unicode hex="00BE"/>
  <outline>
    <contour>
      <point x="230" y="590" type="curve" smooth="yes"/>
      <point x="175" y="590"/>
      <point x="132" y="579"/>
      <point x="85" y="555" type="curve"/>
      <point x="116" y="481" type="line"/>
      <point x="146" y="496"/>
      <point x="170" y="505"/>
      <point x="187" y="505" type="curve" smooth="yes"/>
      <point x="195" y="505"/>
      <point x="199" y="502"/>
      <point x="199" y="494" type="curve" smooth="yes"/>
      <point x="199" y="473"/>
      <point x="160" y="462"/>
      <point x="100" y="444" type="curve"/>
      <point x="119" y="369" type="line"/>
      <point x="139" y="374"/>
      <point x="152" y="378"/>
      <point x="165" y="378" type="curve" smooth="yes"/>
      <point x="177" y="378"/>
      <point x="187" y="374"/>
      <point x="187" y="355" type="curve" smooth="yes"/>
      <point x="187" y="329"/>
      <point x="171" y="311"/>
      <point x="140" y="311" type="curve" smooth="yes"/>
      <point x="115" y="311"/>
      <point x="96" y="321"/>
      <point x="63" y="338" type="curve"/>
      <point x="29" y="263" type="line"/>
      <point x="62" y="241"/>
      <point x="97" y="224"/>
      <point x="156" y="224" type="curve" smooth="yes"/>
      <point x="253" y="224"/>
      <point x="318" y="283"/>
      <point x="318" y="355" type="curve" smooth="yes"/>
      <point x="318" y="396"/>
      <point x="298" y="423"/>
      <point x="264" y="436" type="curve"/>
      <point x="310" y="449"/>
      <point x="330" y="478"/>
      <point x="330" y="513" type="curve" smooth="yes"/>
      <point x="330" y="567"/>
      <point x="280" y="590"/>
    </contour>
    <contour>
      <point x="161" y="0" type="line"/>
      <point x="310" y="0" type="line"/>
      <point x="686" y="587" type="line"/>
      <point x="536" y="587" type="line"/>
    </contour>
    <contour>
      <point x="769" y="280" type="line"/>
      <point x="680" y="260" type="line"/>
      <point x="644" y="169" type="line"/>
      <point x="602" y="169" type="line"/>
      <point x="713" y="360" type="line"/>
      <point x="596" y="360" type="line"/>
      <point x="477" y="148" type="line"/>
      <point x="477" y="73" type="line"/>
      <point x="623" y="73" type="line"/>
      <point x="608" y="-2" type="line"/>
      <point x="716" y="-2" type="line"/>
      <point x="730" y="73" type="line"/>
      <point x="775" y="73" type="line"/>
      <point x="795" y="169" type="line"/>
      <point x="748" y="169" type="line"/>
    </contour>
  </outline>
</glyph>
<glyph name="Igrave" format="1">
  <advance width="307"/>
  <unicode hex="00CC"/>
  <outline>
    <contour>
      <point x="7" y="0" type="line"/>
      <point x="169" y="0" type="line"/>
      <point x="299" y="669" type="line"/>
      <point x="137" y="669" type="line"/>
    </contour>
    <contour>
      <point x="263" y="785" type="line"/>
      <point x="263" y="785"/>
      <point x="159" y="845"/>
      <point x="82" y="944" type="curve"/>
      <point x="12" y="892"/>
      <point x="-7" y="834"/>
      <point x="-7" y="834" type="curve"/>
      <point x="73" y="740"/>
      <point x="208" y="704"/>
      <point x="208" y="704" type="curve"/>
    </contour>
  </outline>
</glyph>
<glyph name="Icircumflex" format="1">
  <advance width="307"/>
  <unicode hex="00CE"/>
  <outline>
    <contour>
      <point x="7" y="0" type="line"/>
      <point x="169" y="0" type="line"/>
      <point x="299" y="669" type="line"/>
      <point x="137" y="669" type="line"/>
    </contour>
    <contour>
      <point x="103" y="719" type="line"/>
      <point x="103" y="719"/>
      <point x="163" y="757"/>
      <point x="231" y="799" type="curve"/>
      <point x="291" y="740"/>
      <point x="364" y="719"/>
      <point x="364" y="719" type="curve"/>
      <point x="419" y="801" type="line"/>
      <point x="419" y="801"/>
      <point x="324" y="867"/>
      <point x="262" y="953" type="curve"/>
      <point x="165" y="900"/>
      <point x="52" y="803"/>
      <point x="52" y="803" type="curve"/>
    </contour>
  </outline>
</glyph>
<glyph name="Eth" format="1">
  <advance width="654"/>
  <unicode hex="00D0"/>
  <outline>
    <contour>
      <point x="-2" y="286" type="line"/>
      <point x="65" y="286" type="line"/>
      <point x="10" y="0" type="line"/>
      <point x="71" y="0" type="line" smooth="yes"/>
      <point x="85" y="0"/>
      <point x="146" y="-2"/>
      <point x="211" y="-2" type="curve" smooth="yes"/>
      <point x="524" y="-2"/>
      <point x="622" y="190"/>
      <point x="622" y="453" type="curve" smooth="yes"/>
      <point x="622" y="597"/>
      <point x="553" y="681"/>
      <point x="390" y="681" type="curve" smooth="yes"/>
      <point x="341" y="681"/>
      <point x="287" y="675"/>
      <point x="244" y="666" type="curve"/>
      <point x="140" y="674" type="line"/>
      <point x="88" y="408" type="line"/>
      <point x="21" y="408" type="line"/>
    </contour>
    <contour>
      <point x="357" y="559" type="curve" smooth="yes"/>
      <point x="426" y="559"/>
      <point x="449" y="506"/>
      <point x="449" y="437" type="curve" smooth="yes"/>
      <point x="449" y="269"/>
      <point x="389" y="125"/>
      <point x="239" y="125" type="curve" smooth="yes"/>
      <point x="197" y="125" type="line"/>
      <point x="227" y="286" type="line"/>
      <point x="342" y="286" type="line"/>
      <point x="366" y="408" type="line"/>
      <point x="251" y="408" type="line"/>
      <point x="279" y="551" type="line"/>
      <point x="303" y="557"/>
      <point x="326" y="559"/>
    </contour>
  </outline>
</glyph>
<glyph name="Oacute" format="1">
  <advance width="669"/>
  <unicode hex="00D3"/>
  <outline>
    <contour>
      <point x="403" y="681" type="curve" smooth="yes"/>
      <point x="150" y="681"/>
      <point x="32" y="452"/>
      <point x="32" y="215" type="curve" smooth="yes"/>
      <point x="32" y="71"/>
      <point x="100" y="-15"/>
      <point x="264" y="-15" type="curve" smooth="yes"/>
      <point x="518" y="-15"/>
      <point x="636" y="217"/>
      <point x="636" y="453" type="curve" smooth="yes"/>
      <point x="636" y="598"/>
      <point x="567" y="681"/>
    </contour>
    <contour>
      <point x="372" y="557" type="curve" smooth="yes"/>
      <point x="441" y="557"/>
      <point x="463" y="505"/>
      <point x="463" y="437" type="curve" smooth="yes"/>
      <point x="463" y="303"/>
      <point x="412" y="109"/>
      <point x="297" y="109" type="curve" smooth="yes"/>
      <point x="227" y="109"/>
      <point x="206" y="164"/>
      <point x="206" y="233" type="curve" smooth="yes"/>
      <point x="206" y="366"/>
      <point x="257" y="557"/>
    </contour>
    <contour>
      <point x="395" y="705" type="line"/>
      <point x="395" y="705"/>
      <point x="509" y="785"/>
      <point x="624" y="817" type="curve"/>
      <point x="607" y="898"/>
      <point x="561" y="942"/>
      <point x="561" y="942" type="curve"/>
      <point x="445" y="902"/>
      <point x="343" y="789"/>
      <point x="343" y="789" type="curve"/>
    </contour>
  </outline>
</glyph>
<glyph name="Otilde" format="1">
  <advance width="669"/>
  <unicode hex="00D5"/>
  <outline>
    <contour>
      <point x="403" y="681" type="curve" smooth="yes"/>
      <point x="150" y="681"/>
      <point x="32" y="452"/>
      <point x="32" y="215" type="curve" smooth="yes"/>
      <point x="32" y="71"/>
      <point x="100" y="-15"/>
      <point x="264" y="-15" type="curve" smooth="yes"/>
      <point x="518" y="-15"/>
      <point x="636" y="217"/>
      <point x="636" y="453" type="curve" smooth="yes"/>
      <point x="636" y="598"/>
      <point x="567" y="681"/>
    </contour>
    <contour>
      <point x="372" y="557" type="curve" smooth="yes"/>
      <point x="441" y="557"/>
      <point x="463" y="505"/>
      <point x="463" y="437" type="curve" smooth="yes"/>
      <point x="463" y="303"/>
      <point x="412" y="109"/>
      <point x="297" y="109" type="curve" smooth="yes"/>
      <point x="227" y="109"/>
      <point x="206" y="164"/>
      <point x="206" y="233" type="curve" smooth="yes"/>
      <point x="206" y="366"/>
      <point x="257" y="557"/>
    </contour>
    <contour>
      <point x="518" y="867" type="line"/>
      <point x="518" y="867"/>
      <point x="486" y="858"/>
      <point x="464" y="858" type="curve" smooth="yes"/>
      <point x="433" y="858"/>
      <point x="422" y="870"/>
      <point x="398" y="870" type="curve" smooth="yes"/>
      <point x="367" y="870"/>
      <point x="342" y="856"/>
      <point x="342" y="856" type="curve"/>
      <point x="329" y="791" type="line"/>
      <point x="329" y="791"/>
      <point x="361" y="800"/>
      <point x="383" y="800" type="curve" smooth="yes"/>
      <point x="414" y="800"/>
      <point x="425" y="788"/>
      <point x="449" y="788" type="curve" smooth="yes"/>
      <point x="480" y="788"/>
      <point x="505" y="802"/>
      <point x="505" y="802" type="curve"/>
    </contour>
  </outline>
</glyph>
<glyph name="Ugrave" format="1">
  <advance width="656"/>
  <unicode hex="00D9"/>
  <outline>
    <contour>
      <point x="125" y="669" type="line"/>
      <point x="45" y="259" type="line" smooth="yes"/>
      <point x="40" y="234"/>
      <point x="37" y="209"/>
      <point x="37" y="187" type="curve" smooth="yes"/>
      <point x="37" y="76"/>
      <point x="95" y="-7"/>
      <point x="256" y="-7" type="curve" smooth="yes"/>
      <point x="452" y="-7"/>
      <point x="541" y="112"/>
      <point x="568" y="251" type="curve" smooth="yes"/>
      <point x="649" y="669" type="line"/>
      <point x="487" y="669" type="line"/>
      <point x="408" y="268" type="line" smooth="yes"/>
      <point x="390" y="177"/>
      <point x="348" y="112"/>
      <point x="283" y="112" type="curve" smooth="yes"/>
      <point x="233" y="112"/>
      <point x="202" y="146"/>
      <point x="202" y="208" type="curve" smooth="yes"/>
      <point x="202" y="224"/>
      <point x="203" y="241"/>
      <point x="207" y="260" type="curve" smooth="yes"/>
      <point x="287" y="669" type="line"/>
    </contour>
    <contour>
      <point x="441" y="785" type="line"/>
      <point x="441" y="785"/>
      <point x="337" y="845"/>
      <point x="260" y="944" type="curve"/>
      <point x="190" y="892"/>
      <point x="171" y="834"/>
      <point x="171" y="834" type="curve"/>
      <point x="251" y="740"/>
      <point x="386" y="704"/>
      <point x="386" y="704" type="curve"/>
    </contour>
  </outline>
</glyph>
<glyph name="atilde" format="1">
  <advance width="531"/>
  <unicode hex="00E3"/>
  <outline>
    <contour>
      <point x="207" y="109" type="curve" smooth="yes"/>
      <point x="188" y="109"/>
      <point x="184" y="132"/>
      <point x="184" y="160" type="curve" smooth="yes"/>
      <point x="184" y="230"/>
      <point x="210" y="387"/>
      <point x="302" y="387" type="curve" smooth="yes"/>
      <point x="316" y="387"/>
      <point x="324" y="386"/>
      <point x="332" y="383" type="curve"/>
      <point x="322" y="338" type="line" smooth="yes"/>
      <point x="299" y="241"/>
      <point x="248" y="109"/>
    </contour>
    <contour>
      <point x="159" y="-9" type="curve" smooth="yes"/>
      <point x="221" y="-9"/>
      <point x="276" y="27"/>
      <point x="319" y="118" type="curve" smooth="yes"/>
      <point x="332" y="146" type="line"/>
      <point x="329" y="119"/>
      <point x="329" y="100"/>
      <point x="329" y="84" type="curve" smooth="yes"/>
      <point x="329" y="44"/>
      <point x="345" y="11"/>
      <point x="365" y="-12" type="curve"/>
      <point x="491" y="38" type="line"/>
      <point x="464" y="79"/>
      <point x="451" y="114"/>
      <point x="451" y="170" type="curve" smooth="yes"/>
      <point x="451" y="194"/>
      <point x="454" y="223"/>
      <point x="461" y="255" type="curve" smooth="yes"/>
      <point x="503" y="473" type="line"/>
      <point x="423" y="478" type="line"/>
      <point x="386" y="495"/>
      <point x="353" y="502"/>
      <point x="309" y="502" type="curve" smooth="yes"/>
      <point x="123" y="502"/>
      <point x="22" y="354"/>
      <point x="22" y="163" type="curve" smooth="yes"/>
      <point x="22" y="81"/>
      <point x="59" y="-9"/>
    </contour>
    <contour>
      <point x="495" y="719" type="line"/>
      <point x="495" y="719"/>
      <point x="445" y="703"/>
      <point x="401" y="703" type="curve" smooth="yes"/>
      <point x="346" y="703"/>
      <point x="309" y="725"/>
      <point x="262" y="725" type="curve" smooth="yes"/>
      <point x="209" y="725"/>
      <point x="166" y="700"/>
      <point x="166" y="700" type="curve"/>
      <point x="145" y="597" type="line"/>
      <point x="145" y="597"/>
      <point x="195" y="613"/>
      <point x="239" y="613" type="curve" smooth="yes"/>
      <point x="293" y="613"/>
      <point x="330" y="591"/>
      <point x="377" y="591" type="curve" smooth="yes"/>
      <point x="431" y="591"/>
      <point x="474" y="616"/>
      <point x="474" y="616" type="curve"/>
    </contour>
  </outline>
</glyph>
<glyph name="adieresis" format="1">
  <advance width="531"/>
  <unicode hex="00E4"/>
  <outline>
    <contour>
      <point x="207" y="109" type="curve" smooth="yes"/>
      <point x="188" y="109"/>
      <point x="184" y="132"/>
      <point x="184" y="160" type="curve" smooth="yes"/>
      <point x="184" y="230"/>
      <point x="210" y="387"/>
      <point x="302" y="387" type="curve" smooth="yes"/>
      <point x="316" y="387"/>
      <point x="324" y="386"/>
      <point x="332" y="383" type="curve"/>
      <point x="322" y="338" type="line" smooth="yes"/>
      <point x="299" y="241"/>
      <point x="248" y="109"/>
    </contour>
    <contour>
      <point x="159" y="-9" type="curve" smooth="yes"/>
      <point x="221" y="-9"/>
      <point x="276" y="27"/>
      <point x="319" y="118" type="curve" smooth="yes"/>
      <point x="332" y="146" type="line"/>
      <point x="329" y="119"/>
      <point x="329" y="100"/>
      <point x="329" y="84" type="curve" smooth="yes"/>
      <point x="329" y="44"/>
      <point x="345" y="11"/>
      <point x="365" y="-12" type="curve"/>
      <point x="491" y="38" type="line"/>
      <point x="464" y="79"/>
      <point x="451" y="114"/>
      <point x="451" y="170" type="curve" smooth="yes"/>
      <point x="451" y="194"/>
      <point x="454" y="223"/>
      <point x="461" y="255" type="curve" smooth="yes"/>
      <point x="503" y="473" type="line"/>
      <point x="423" y="478" type="line"/>
      <point x="386" y="495"/>
      <point x="353" y="502"/>
      <point x="309" y="502" type="curve" smooth="yes"/>
      <point x="123" y="502"/>
      <point x="22" y="354"/>
      <point x="22" y="163" type="curve" smooth="yes"/>
      <point x="22" y="81"/>
      <point x="59" y="-9"/>
    </contour>
    <contour>
      <point x="214" y="720" type="curve" smooth="yes"/>
      <point x="161" y="720"/>
      <point x="130" y="683"/>
      <point x="130" y="638" type="curve" smooth="yes"/>
      <point x="130" y="597"/>
      <point x="153" y="568"/>
      <point x="203" y="568" type="curve" smooth="yes"/>
      <point x="255" y="568"/>
      <point x="289" y="605"/>
      <point x="289" y="648" type="curve" smooth="yes"/>
      <point x="289" y="693"/>
      <point x="265" y="720"/>
    </contour>
    <contour>
      <point x="431" y="720" type="curve" smooth="yes"/>
      <point x="378" y="720"/>
      <point x="347" y="683"/>
      <point x="347" y="638" type="curve" smooth="yes"/>
      <point x="347" y="597"/>
      <point x="370" y="568"/>
      <point x="421" y="568" type="curve" smooth="yes"/>
      <point x="473" y="568"/>
      <point x="506" y="605"/>
      <point x="506" y="648" type="curve" smooth="yes"/>
      <point x="506" y="693"/>
      <point x="482" y="720"/>
    </contour>
  </outline>
</glyph>
<glyph name="ecircumflex" format="1">
  <advance width="469"/>
  <unicode hex="00EA"/>
  <outline>
    <contour>
      <point x="22" y="163" type="curve" smooth="yes"/>
      <point x="22" y="75"/>
      <point x="66" y="-13"/>
      <point x="201" y="-13" type="curve" smooth="yes"/>
      <point x="298" y="-13"/>
      <point x="413" y="44"/>
      <point x="413" y="44" type="curve"/>
      <point x="379" y="146" type="line"/>
      <point x="379" y="146"/>
      <point x="267" y="105"/>
      <point x="230" y="105" type="curve" smooth="yes"/>
      <point x="202" y="105"/>
      <point x="181" y="119"/>
      <point x="181" y="152" type="curve" smooth="yes"/>
      <point x="181" y="159"/>
      <point x="182" y="169"/>
      <point x="182" y="174" type="curve"/>
      <point x="346" y="189"/>
      <point x="462" y="269"/>
      <point x="462" y="382" type="curve" smooth="yes"/>
      <point x="462" y="455"/>
      <point x="416" y="505"/>
      <point x="304" y="505" type="curve" smooth="yes"/>
      <point x="124" y="505"/>
      <point x="22" y="347"/>
    </contour>
    <contour>
      <point x="280" y="389" type="curve" smooth="yes"/>
      <point x="299" y="389"/>
      <point x="309" y="380"/>
      <point x="309" y="362" type="curve" smooth="yes"/>
      <point x="309" y="332"/>
      <point x="270" y="292"/>
      <point x="198" y="283" type="curve"/>
      <point x="214" y="345"/>
      <point x="245" y="389"/>
    </contour>
    <contour>
      <point x="210" y="538" type="line"/>
      <point x="210" y="538"/>
      <point x="264" y="582"/>
      <point x="326" y="630" type="curve"/>
      <point x="379" y="572"/>
      <point x="437" y="538"/>
      <point x="437" y="538" type="curve"/>
      <point x="510" y="604" type="line"/>
      <point x="510" y="604"/>
      <point x="426" y="700"/>
      <point x="359" y="801" type="curve"/>
      <point x="268" y="740"/>
      <point x="137" y="604"/>
      <point x="137" y="604" type="curve"/>
    </contour>
  </outline>
</glyph>
<glyph name="edieresis" format="1">
  <advance width="469"/>
  <unicode hex="00EB"/>
  <outline>
    <contour>
      <point x="22" y="163" type="curve" smooth="yes"/>
      <point x="22" y="75"/>
      <point x="66" y="-13"/>
      <point x="201" y="-13" type="curve" smooth="yes"/>
      <point x="298" y="-13"/>
      <point x="413" y="44"/>
      <point x="413" y="44" type="curve"/>
      <point x="379" y="146" type="line"/>
      <point x="379" y="146"/>
      <point x="267" y="105"/>
      <point x="230" y="105" type="curve" smooth="yes"/>
      <point x="202" y="105"/>
      <point x="181" y="119"/>
      <point x="181" y="152" type="curve" smooth="yes"/>
      <point x="181" y="159"/>
      <point x="182" y="169"/>
      <point x="182" y="174" type="curve"/>
      <point x="346" y="189"/>
      <point x="462" y="269"/>
      <point x="462" y="382" type="curve" smooth="yes"/>
      <point x="462" y="455"/>
      <point x="416" y="505"/>
      <point x="304" y="505" type="curve" smooth="yes"/>
      <point x="124" y="505"/>
      <point x="22" y="347"/>
    </contour>
    <contour>
      <point x="280" y="389" type="curve" smooth="yes"/>
      <point x="299" y="389"/>
      <point x="309" y="380"/>
      <point x="309" y="362" type="curve" smooth="yes"/>
      <point x="309" y="332"/>
      <point x="270" y="292"/>
      <point x="198" y="283" type="curve"/>
      <point x="214" y="345"/>
      <point x="245" y="389"/>
    </contour>
    <contour>
      <point x="227" y="724" type="curve" smooth="yes"/>
      <point x="174" y="724"/>
      <point x="143" y="687"/>
      <point x="143" y="642" type="curve" smooth="yes"/>
      <point x="143" y="601"/>
      <point x="166" y="572"/>
      <point x="217" y="572" type="curve" smooth="yes"/>
      <point x="269" y="572"/>
      <point x="302" y="609"/>
      <point x="302" y="652" type="curve" smooth="yes"/>
      <point x="302" y="697"/>
      <point x="278" y="724"/>
    </contour>
    <contour>
      <point x="444" y="724" type="curve" smooth="yes"/>
      <point x="392" y="724"/>
      <point x="361" y="687"/>
      <point x="361" y="642" type="curve" smooth="yes"/>
      <point x="361" y="601"/>
      <point x="384" y="572"/>
      <point x="434" y="572" type="curve" smooth="yes"/>
      <point x="487" y="572"/>
      <point x="519" y="609"/>
      <point x="519" y="652" type="curve" smooth="yes"/>
      <point x="519" y="697"/>
      <point x="495" y="724"/>
    </contour>
  </outline>
</glyph>
<glyph name="icircumflex" format="1">
  <advance width="297"/>
  <unicode hex="00EE"/>
  <outline>
    <contour>
      <point x="138" y="-7" type="curve" smooth="yes"/>
      <point x="194" y="-7"/>
      <point x="247" y="18"/>
      <point x="247" y="18" type="curve"/>
      <point x="247" y="126" type="line"/>
      <point x="244" y="125"/>
      <point x="216" y="115"/>
      <point x="202" y="115" type="curve" smooth="yes"/>
      <point x="190" y="115"/>
      <point x="189" y="124"/>
      <point x="189" y="133" type="curve" smooth="yes"/>
      <point x="189" y="139"/>
      <point x="190" y="142"/>
      <point x="193" y="159" type="curve" smooth="yes"/>
      <point x="258" y="490" type="line"/>
      <point x="105" y="490" type="line"/>
      <point x="31" y="121" type="line" smooth="yes"/>
      <point x="29" y="110"/>
      <point x="27" y="99"/>
      <point x="27" y="90" type="curve" smooth="yes"/>
      <point x="27" y="32"/>
      <point x="68" y="-7"/>
    </contour>
    <contour>
      <point x="117" y="524" type="line"/>
      <point x="117" y="524"/>
      <point x="155" y="563"/>
      <point x="201" y="615" type="curve"/>
      <point x="234" y="560"/>
      <point x="261" y="524"/>
      <point x="261" y="524" type="curve"/>
      <point x="343" y="579" type="line"/>
      <point x="343" y="579"/>
      <point x="301" y="693"/>
      <point x="246" y="788" type="curve"/>
      <point x="163" y="727"/>
      <point x="43" y="587"/>
      <point x="43" y="587" type="curve"/>
    </contour>
  </outline>
</glyph>
<glyph name="eth" format="1">
  <advance width="501"/>
  <unicode hex="00F0"/>
  <outline>
    <contour>
      <point x="485" y="373" type="curve" smooth="yes"/>
      <point x="485" y="451"/>
      <point x="471" y="520"/>
      <point x="447" y="574" type="curve"/>
      <point x="523" y="593" type="line"/>
      <point x="498" y="685" type="line"/>
      <point x="399" y="657" type="line"/>
      <point x="379" y="683"/>
      <point x="353" y="708"/>
      <point x="330" y="726" type="curve"/>
      <point x="234" y="646" type="line"/>
      <point x="260" y="616" type="line"/>
      <point x="199" y="599" type="line"/>
      <point x="226" y="509" type="line"/>
      <point x="320" y="538" type="line"/>
      <point x="334" y="519"/>
      <point x="345" y="500"/>
      <point x="353" y="484" type="curve"/>
      <point x="331" y="498"/>
      <point x="307" y="505"/>
      <point x="289" y="505" type="curve" smooth="yes"/>
      <point x="123" y="505"/>
      <point x="22" y="347"/>
      <point x="22" y="163" type="curve" smooth="yes"/>
      <point x="22" y="75"/>
      <point x="66" y="-13"/>
      <point x="201" y="-13" type="curve" smooth="yes"/>
      <point x="419" y="-13"/>
      <point x="485" y="187"/>
    </contour>
    <contour>
      <point x="283" y="393" type="curve" smooth="yes"/>
      <point x="306" y="393"/>
      <point x="321" y="375"/>
      <point x="321" y="334" type="curve" smooth="yes"/>
      <point x="321" y="241"/>
      <point x="286" y="99"/>
      <point x="222" y="99" type="curve" smooth="yes"/>
      <point x="198" y="99"/>
      <point x="183" y="116"/>
      <point x="183" y="156" type="curve" smooth="yes"/>
      <point x="183" y="251"/>
      <point x="218" y="393"/>
    </contour>
  </outline>
</glyph>
<glyph name="ograve" format="1">
  <advance width="505"/>
  <unicode hex="00F2"/>
  <outline>
    <contour>
      <point x="304" y="505" type="curve" smooth="yes"/>
      <point x="123" y="505"/>
      <point x="22" y="347"/>
      <point x="22" y="163" type="curve" smooth="yes"/>
      <point x="22" y="75"/>
      <point x="66" y="-13"/>
      <point x="201" y="-13" type="curve" smooth="yes"/>
      <point x="383" y="-13"/>
      <point x="483" y="141"/>
      <point x="483" y="327" type="curve" smooth="yes"/>
      <point x="483" y="415"/>
      <point x="440" y="505"/>
    </contour>
    <contour>
      <point x="283" y="393" type="curve" smooth="yes"/>
      <point x="306" y="393"/>
      <point x="321" y="375"/>
      <point x="321" y="334" type="curve" smooth="yes"/>
      <point x="321" y="241"/>
      <point x="286" y="99"/>
      <point x="222" y="99" type="curve" smooth="yes"/>
      <point x="198" y="99"/>
      <point x="183" y="116"/>
      <point x="183" y="156" type="curve" smooth="yes"/>
      <point x="183" y="251"/>
      <point x="218" y="393"/>
    </contour>
    <contour>
      <point x="379" y="596" type="line"/>
      <point x="379" y="596"/>
      <point x="292" y="679"/>
      <point x="241" y="793" type="curve"/>
      <point x="161" y="760"/>
      <point x="128" y="708"/>
      <point x="128" y="708" type="curve"/>
      <point x="184" y="598"/>
      <point x="306" y="530"/>
      <point x="306" y="530" type="curve"/>
    </contour>
  </outline>
</glyph>
<glyph name="OE" format="1">
  <advance width="838"/>
  <unicode hex="0152"/>
  <outline>
    <contour>
      <point x="766" y="0" type="line"/>
      <point x="766" y="121" type="line"/>
      <point x="515" y="121" type="line"/>
      <point x="549" y="290" type="line"/>
      <point x="745" y="290" type="line"/>
      <point x="771" y="411" type="line"/>
      <point x="571" y="411" type="line"/>
      <point x="598" y="548" type="line"/>
      <point x="844" y="548" type="line"/>
      <point x="870" y="669" type="line"/>
      <point x="461" y="669" type="line"/>
      <point x="442" y="673"/>
      <point x="419" y="676"/>
      <point x="393" y="676" type="curve" smooth="yes"/>
      <point x="151" y="676"/>
      <point x="32" y="452"/>
      <point x="32" y="215" type="curve" smooth="yes"/>
      <point x="32" y="71"/>
      <point x="98" y="-13"/>
      <point x="264" y="-13" type="curve" smooth="yes"/>
      <point x="299" y="-13"/>
      <point x="329" y="-8"/>
      <point x="356" y="0" type="curve"/>
    </contour>
    <contour>
      <point x="297" y="109" type="curve" smooth="yes"/>
      <point x="227" y="109"/>
      <point x="206" y="164"/>
      <point x="206" y="233" type="curve" smooth="yes"/>
      <point x="206" y="366"/>
      <point x="256" y="557"/>
      <point x="372" y="557" type="curve" smooth="yes"/>
      <point x="397" y="557"/>
      <point x="416" y="555"/>
      <point x="437" y="549" type="curve"/>
      <point x="352" y="116" type="line"/>
      <point x="334" y="112"/>
      <point x="316" y="109"/>
    </contour>
  </outline>
</glyph>
<glyph name="oe" format="1">
  <advance width="754"/>
  <unicode hex="0153"/>
  <outline>
    <contour>
      <point x="304" y="505" type="curve" smooth="yes"/>
      <point x="123" y="505"/>
      <point x="22" y="347"/>
      <point x="22" y="163" type="curve" smooth="yes"/>
      <point x="22" y="75"/>
      <point x="66" y="-13"/>
      <point x="201" y="-13" type="curve" smooth="yes"/>
      <point x="265" y="-13"/>
      <point x="317" y="7"/>
      <point x="357" y="41" type="curve"/>
      <point x="381" y="9"/>
      <point x="420" y="-13"/>
      <point x="486" y="-13" type="curve" smooth="yes"/>
      <point x="582" y="-13"/>
      <point x="698" y="44"/>
      <point x="698" y="44" type="curve"/>
      <point x="664" y="146" type="line"/>
      <point x="664" y="146"/>
      <point x="552" y="105"/>
      <point x="514" y="105" type="curve" smooth="yes"/>
      <point x="486" y="105"/>
      <point x="466" y="119"/>
      <point x="466" y="152" type="curve" smooth="yes"/>
      <point x="466" y="159"/>
      <point x="466" y="169"/>
      <point x="467" y="174" type="curve"/>
      <point x="631" y="189"/>
      <point x="747" y="269"/>
      <point x="747" y="382" type="curve" smooth="yes"/>
      <point x="747" y="455"/>
      <point x="701" y="505"/>
      <point x="588" y="505" type="curve" smooth="yes"/>
      <point x="524" y="505"/>
      <point x="472" y="484"/>
      <point x="432" y="449" type="curve"/>
      <point x="410" y="483"/>
      <point x="370" y="505"/>
    </contour>
    <contour>
      <point x="283" y="393" type="curve" smooth="yes"/>
      <point x="306" y="393"/>
      <point x="321" y="375"/>
      <point x="321" y="334" type="curve" smooth="yes"/>
      <point x="321" y="241"/>
      <point x="286" y="99"/>
      <point x="222" y="99" type="curve" smooth="yes"/>
      <point x="198" y="99"/>
      <point x="183" y="116"/>
      <point x="183" y="156" type="curve" smooth="yes"/>
      <point x="183" y="251"/>
      <point x="218" y="393"/>
    </contour>
    <contour>
      <point x="565" y="389" type="curve" smooth="yes"/>
      <point x="584" y="389"/>
      <point x="594" y="380"/>
      <point x="594" y="362" type="curve" smooth="yes"/>
      <point x="594" y="332"/>
      <point x="555" y="292"/>
      <point x="482" y="283" type="curve"/>
      <point x="499" y="345"/>
      <point x="530" y="389"/>
    </contour>
  </outline>
</glyph>
<glyph name="Ydieresis" format="1">
  <advance width="469"/>
  <unicode hex="0178"/>
  <outline>
    <contour>
      <point x="268" y="0" type="line"/>
      <point x="268" y="38" type="line" smooth="yes"/>
      <point x="268" y="345"/>
      <point x="387" y="466"/>
      <point x="536" y="608" type="curve"/>
      <point x="440" y="685" type="line"/>
      <point x="377" y="643"/>
      <point x="302" y="569"/>
      <point x="244" y="457" type="curve"/>
      <point x="192" y="669" type="line"/>
      <point x="28" y="669" type="line"/>
      <point x="152" y="273" type="line"/>
      <point x="123" y="205"/>
      <point x="107" y="126"/>
      <point x="107" y="40" type="curve" smooth="yes"/>
      <point x="107" y="0" type="line"/>
    </contour>
    <contour>
      <point x="199" y="891" type="curve" smooth="yes"/>
      <point x="146" y="891"/>
      <point x="115" y="854"/>
      <point x="115" y="809" type="curve" smooth="yes"/>
      <point x="115" y="768"/>
      <point x="138" y="739"/>
      <point x="189" y="739" type="curve" smooth="yes"/>
      <point x="241" y="739"/>
      <point x="274" y="776"/>
      <point x="274" y="819" type="curve" smooth="yes"/>
      <point x="274" y="864"/>
      <point x="250" y="891"/>
    </contour>
    <contour>
      <point x="416" y="891" type="curve" smooth="yes"/>
      <point x="364" y="891"/>
      <point x="333" y="854"/>
      <point x="333" y="809" type="curve" smooth="yes"/>
      <point x="333" y="768"/>
      <point x="356" y="739"/>
      <point x="406" y="739" type="curve" smooth="yes"/>
      <point x="459" y="739"/>
      <point x="491" y="776"/>
      <point x="491" y="819" type="curve" smooth="yes"/>
      <point x="491" y="864"/>
      <point x="467" y="891"/>
    </contour>
  </outline>
</glyph>
<glyph name="apostrophe" format="1">
  <advance width="315"/>
  <unicode hex="02BC"/>
  <outline>
    <contour>
      <point x="144" y="665" type="curve" smooth="yes"/>
      <point x="144" y="620"/>
      <point x="136" y="577"/>
      <point x="59" y="528" type="curve"/>
      <point x="111" y="443" type="line"/>
      <point x="209" y="494"/>
      <point x="299" y="585"/>
      <point x="299" y="685" type="curve" smooth="yes"/>
      <point x="299" y="730"/>
      <point x="278" y="756"/>
      <point x="224" y="756" type="curve" smooth="yes"/>
      <point x="169" y="756"/>
      <point x="139" y="735"/>
      <point x="139" y="735" type="curve"/>
      <point x="141" y="717"/>
      <point x="144" y="691"/>
    </contour>
  </outline>
</glyph>
<glyph name="circumflex" format="1">
  <advance width="499"/>
  <unicode hex="02C6"/>
  <outline>
    <contour>
      <point x="225" y="490" type="move" name="_top"/>
    </contour>
    <contour>
      <point x="135" y="526" type="line"/>
      <point x="135" y="526"/>
      <point x="189" y="570"/>
      <point x="251" y="618" type="curve"/>
      <point x="304" y="560"/>
      <point x="362" y="526"/>
      <point x="362" y="526" type="curve"/>
      <point x="435" y="592" type="line"/>
      <point x="435" y="592"/>
      <point x="351" y="688"/>
      <point x="284" y="789" type="curve"/>
      <point x="193" y="728"/>
      <point x="62" y="592"/>
      <point x="62" y="592" type="curve"/>
    </contour>
  </outline>
</glyph>
<glyph name="ring" format="1">
  <advance width="496"/>
  <unicode hex="02DA"/>
  <outline>
    <contour>
      <point x="256" y="793" type="curve" smooth="yes"/>
      <point x="273" y="793"/>
      <point x="283" y="780"/>
      <point x="283" y="762" type="curve" smooth="yes"/>
      <point x="283" y="736"/>
      <point x="266" y="710"/>
      <point x="241" y="710" type="curve" smooth="yes"/>
      <point x="223" y="710"/>
      <point x="213" y="722"/>
      <point x="213" y="740" type="curve" smooth="yes"/>
      <point x="213" y="766"/>
      <point x="229" y="793"/>
    </contour>
    <contour>
      <point x="229" y="638" type="curve" smooth="yes"/>
      <point x="308" y="638"/>
      <point x="362" y="698"/>
      <point x="362" y="770" type="curve" smooth="yes"/>
      <point x="362" y="824"/>
      <point x="328" y="864"/>
      <point x="267" y="864" type="curve" smooth="yes"/>
      <point x="188" y="864"/>
      <point x="134" y="804"/>
      <point x="134" y="733" type="curve" smooth="yes"/>
      <point x="134" y="679"/>
      <point x="168" y="638"/>
    </contour>
  </outline>
</glyph>
<glyph name="quotedblleft" format="1">
  <advance width="466"/>
  <unicode hex="201C"/>
  <outline>
    <contour>
      <point x="253" y="532" type="curve" smooth="yes"/>
      <point x="253" y="577"/>
      <point x="262" y="620"/>
      <point x="339" y="669" type="curve"/>
      <point x="287" y="754" type="line"/>
      <point x="189" y="703"/>
      <point x="98" y="611"/>
      <point x="98" y="511" type="curve" smooth="yes"/>
      <point x="98" y="467"/>
      <point x="119" y="440"/>
      <point x="173" y="440" type="curve" smooth="yes"/>
      <point x="228" y="440"/>
      <point x="259" y="461"/>
      <point x="259" y="461" type="curve"/>
      <point x="257" y="479"/>
      <point x="253" y="505"/>
    </contour>
    <contour>
      <point x="470" y="532" type="curve" smooth="yes"/>
      <point x="470" y="577"/>
      <point x="478" y="620"/>
      <point x="555" y="669" type="curve"/>
      <point x="503" y="754" type="line"/>
      <point x="405" y="703"/>
      <point x="315" y="611"/>
      <point x="315" y="511" type="curve" smooth="yes"/>
      <point x="315" y="467"/>
      <point x="336" y="440"/>
      <point x="390" y="440" type="curve" smooth="yes"/>
      <point x="445" y="440"/>
      <point x="475" y="461"/>
      <point x="475" y="461" type="curve"/>
      <point x="473" y="479"/>
      <point x="470" y="505"/>
    </contour>
  </outline>
</glyph>
<glyph name="quotedblbase" format="1">
  <advance width="488"/>
  <unicode hex="201E"/>
  <outline>
    <contour>
      <point x="37" y="74" type="curve" smooth="yes"/>
      <point x="37" y="29"/>
      <point x="28" y="-14"/>
      <point x="-49" y="-63" type="curve"/>
      <point x="3" y="-148" type="line"/>
      <point x="101" y="-97"/>
      <point x="192" y="-5"/>
      <point x="192" y="95" type="curve" smooth="yes"/>
      <point x="192" y="139"/>
      <point x="171" y="166"/>
      <point x="117" y="166" type="curve" smooth="yes"/>
      <point x="62" y="166"/>
      <point x="32" y="145"/>
      <point x="32" y="145" type="curve"/>
      <point x="34" y="127"/>
      <point x="37" y="101"/>
    </contour>
    <contour>
      <point x="253" y="74" type="curve" smooth="yes"/>
      <point x="253" y="29"/>
      <point x="245" y="-14"/>
      <point x="168" y="-63" type="curve"/>
      <point x="220" y="-148" type="line"/>
      <point x="318" y="-97"/>
      <point x="408" y="-5"/>
      <point x="408" y="95" type="curve" smooth="yes"/>
      <point x="408" y="139"/>
      <point x="387" y="166"/>
      <point x="333" y="166" type="curve" smooth="yes"/>
      <point x="278" y="166"/>
      <point x="248" y="145"/>
      <point x="248" y="145" type="curve"/>
      <point x="250" y="127"/>
      <point x="253" y="101"/>
    </contour>
  </outline>
</glyph>
<glyph name="bullet" format="1">
  <advance width="320"/>
  <unicode hex="2022"/>
  <outline>
    <contour>
      <point x="166" y="424" type="curve" smooth="yes"/>
      <point x="85" y="424"/>
      <point x="36" y="366"/>
      <point x="36" y="297" type="curve" smooth="yes"/>
      <point x="36" y="234"/>
      <point x="72" y="189"/>
      <point x="150" y="189" type="curve" smooth="yes"/>
      <point x="231" y="189"/>
      <point x="281" y="246"/>
      <point x="281" y="314" type="curve" smooth="yes"/>
      <point x="281" y="382"/>
      <point x="244" y="424"/>
    </contour>
  </outline>
</glyph>
<glyph name="guilsinglright" format="1">
  <advance width="376"/>
  <unicode hex="203A"/>
  <outline>
    <contour>
      <point x="55" y="407" type="line"/>
      <point x="82" y="361"/>
      <point x="127" y="290"/>
      <point x="157" y="242" type="curve"/>
      <point x="9" y="95" type="line"/>
      <point x="74" y="15" type="line"/>
      <point x="114" y="46"/>
      <point x="236" y="140"/>
      <point x="330" y="242" type="curve"/>
      <point x="269" y="342"/>
      <point x="138" y="472"/>
      <point x="138" y="472" type="curve"/>
    </contour>
  </outline>
</glyph>
